# xmcd
# Copyright (C) 1995-1998 Ti Kan
#
# Track frame offsets:
#       150
#       2209
#       20197
#       26679
#       41014
#       48853
#       76000
#       91841
#       96803
#       120791
#       124307
#       144585
#       157974
#       179322
#       186276
#       190418
#       209873
#       252124
#       282609
#       290869
#       303055
#       327065
#
# Disc length: 4386 seconds
#
# Revision: 0
# Processed by: cddbd v1.5.2PL0 Copyright (c) Steve Scherf et al.
# Submitted via: CD-Import v1.0
#
DISCID=37112016
DTITLE=Helge Schneider - Füttern Verboten (Live In Dortmund 2004)
DYEAR=04
DGENRE=
TTITLE0=01 Garderobe1
TTITLE1=02 Eröffnung In F
TTITLE2=03 Die Themen
TTITLE3=04 Zoo
TTITLE4=05 Vorstellung Der Tiere
TTITLE5=06 Zoolied
TTITLE6=07 Liebe Gemeinde
TTITLE7=08 Blue Wedding Organ
TTITLE8=09 Tv-Übertragung
TTITLE9=10 Fingernagel
TTITLE10=11 Titanic
TTITLE11=12 Erzgebirge
TTITLE12=13 Erzgebirge- Männer- Schnitzer- Blues
TTITLE13=14 Garderobe 2
TTITLE14=15 Roger
TTITLE15=16 Dolores
TTITLE16=17 Meisermann
TTITLE17=18 (Und Da Stehen Sie Wieder...)
TTITLE18=19 Beim Zahnarzt
TTITLE19=20 Daum, Daum
TTITLE20=21 Katzenoma
TTITLE21=22 Garderobe 3
EXTD=
EXTT0=
EXTT1=
EXTT2=
EXTT3=
EXTT4=
EXTT5=
EXTT6=
EXTT7=
EXTT8=
EXTT9=
EXTT10=
EXTT11=
EXTT12=
EXTT13=
EXTT14=
EXTT15=
EXTT16=
EXTT17=
EXTT18=
EXTT19=
EXTT20=
EXTT21=
PLAYORDER=
